#!OML:ASF E:\Style4\Style4.ASF
:FULLY-SPECIFIED
:DEGREES
2208
root -0.395493 17.8426 -2.46331 0.976378 -5.03126 4.00109
lowerback 8.8849 1.89556 3.57227
upperback 4.92225 2.78951 2.82102
thorax 0.157351 1.42172 0.671346
lowerneck 1.07329 -4.79828 -5.69406
upperneck -1.88288 -6.63147 -5.55224
head -0.761176 -3.22204 -0.707893
rclavicle -2.74323e-014 -3.49861e-014
rhumerus -21.6924 18.7161 -84.9182
rradius 56.2982
rwrist -34.3442
rhand -21.0756 20.2032
rfingers 7.12502
rthumb 5.3014 -9.71053
lclavicle -2.74323e-014 -3.49861e-014
lhumerus 6.41221 -14.6212 47.9452
lradius 119.302
lwrist 49.6161
lhand -14.7486 24.4536
lfingers 7.12502
lthumb 11.4073 54.1233
rfemur -17.4014 3.02531 14.9127
rtibia 32.7221
rfoot -16.1911 -10.3011
rtoes -10.2897
lfemur -13.0098 3.20404 -22.9086
ltibia 30.5837
lfoot -17.6151 11.7979
ltoes -13.0299
2209
root -0.398833 17.8505 -2.45898 1.02666 -5.3004 4.0269
lowerback 8.8602 1.9021 3.34808
upperback 4.87394 2.7814 2.71377
thorax 0.11424 1.41403 0.685792
lowerneck 0.997705 -4.7054 -5.66654
upperneck -1.7772 -6.4893 -5.39362
head -0.710513 -3.15835 -0.66852
rclavicle 3.18055e-015 0
rhumerus -22.8413 18.9971 -85.397
rradius 56.5663
rwrist -34.0865
rhand -21.1019 20.4764
rfingers 7.12502
rthumb 5.27595 -9.4379
lclavicle 3.18055e-015 0
lhumerus 7.44385 -14.2929 48.3991
lradius 118.214
lwrist 49.3743
lhand -14.4607 24.5788
lfingers 7.12502
lthumb 11.6849 54.233
rfemur -17.364 3.16526 14.8862
rtibia 32.4809
rfoot -16.0864 -10.2405
rtoes -10.3803
lfemur -12.9776 3.38201 -22.9403
ltibia 30.4739
lfoot -17.5299 11.7987
ltoes -11.6993
2210
root -0.399223 17.858 -2.45367 1.01531 -5.346 3.99247
lowerback 9.03268 1.79552 3.27271
upperback 4.74376 2.64786 2.58653
thorax -0.114926 1.34414 0.598191
lowerneck 0.940339 -4.56368 -5.54374
upperneck -1.61355 -6.27986 -5.28808
head -0.650241 -3.06281 -0.660959
rclavicle -3.29983e-014 -3.65764e-014
rhumerus -24.0495 19.3375 -85.954
rradius 56.7686
rwrist -33.6084
rhand -20.8605 20.673
rfingers 7.12502
rthumb 5.50899 -9.23543
lclavicle -3.29983e-014 -3.65764e-014
lhumerus 8.33473 -14.0266 48.9571
lradius 117.078
lwrist 48.8715
lhand -14.2856 24.8035
lfingers 7.12502
lthumb 11.8538 54.448
rfemur -17.2179 3.18486 14.9291
rtibia 32.2516
rfoot -15.9981 -10.2283
rtoes -10.5242
lfemur -12.894 3.44193 -22.9101
ltibia 30.3694
lfoot -17.3665 11.9086
ltoes -12.5756
2211
root -0.400125 17.8666 -2.44997 1.04118 -5.3231 3.86461
lowerback 9.21926 1.65677 3.27641
upperback 4.57595 2.47986 2.48852
thorax -0.389111 1.25719 0.499541
lowerneck 0.880908 -4.40761 -5.54248
upperneck -1.40984 -6.04822 -5.06365
head -0.569615 -2.95773 -0.598768
rclavicle 2.78299e-014 9.54166e-015
rhumerus -25.3128 19.803 -86.5119
rradius 57.1169
rwrist -33.3578
rhand -20.4359 20.1275
rfingers 7.12502
rthumb 5.91894 -9.76981
lclavicle 2.78299e-014 9.54166e-015
lhumerus 9.12197 -13.8032 49.6175
lradius 115.91
lwrist 48.3387
lhand -14.4439 24.9396
lfingers 7.12502
lthumb 11.7011 54.5929
rfemur -17.0939 3.2381 15.08
rtibia 32.0209
rfoot -15.8953 -10.289
rtoes -10.6368
lfemur -12.8641 3.52616 -22.7826
ltibia 30.2892
lfoot -17.1951 11.9799
ltoes -13.9457
2212
root -0.401323 17.8733 -2.44692 1.10514 -5.35201 3.76889
lowerback 9.3303 1.55436 3.22798
upperback 4.42359 2.35075 2.37713
thorax -0.607445 1.18969 0.416656
lowerneck 0.783707 -4.2617 -5.57016
upperneck -1.1639 -5.82484 -4.77556
head -0.467861 -2.85877 -0.514204
rclavicle 2.38542e-015 4.77083e-015
rhumerus -26.5892 20.376 -87.1088
rradius 57.5069
rwrist -33.4912
rhand -20.6122 19.9692
rfingers 7.12502
rthumb 5.74879 -9.93286
lclavicle 2.38542e-015 4.77083e-015
lhumerus 9.90164 -13.5665 50.2209
lradius 114.732
lwrist 47.9437
lhand -14.4669 24.9245
lfingers 7.12502
lthumb 11.6789 54.579
rfemur -17.0283 3.2517 15.1844
rtibia 31.7989
rfoot -15.8258 -10.2614
rtoes -10.4675
lfemur -12.9019 3.55246 -22.6928
ltibia 30.2402
lfoot -17.1198 12.0858
ltoes -13.9265
